<mxfile host="app.diagrams.net" modified="2024-06-09T06:59:35.151Z" agent="Mozilla/5.0 (Windows NT 10.0; Win64; x64) AppleWebKit/537.36 (KHTML, like Gecko) Chrome/124.0.0.0 Safari/537.36" version="24.4.13" etag="Nl7gDhBGclwz6wU1jAsa" type="github">
  <diagram name="Trang-1" id="G1i_2AvqEz6jMOJWEVP8">
    <mxGraphModel>
      <root>
        <mxCell id="0" />
        <mxCell id="1" parent="0" />
      </root>
    </mxGraphModel>
  </diagram>
</mxfile>
